<svg xmlns="http://www.w3.org/2000/svg" width="28" height="28" viewBox="0 0 28 28"><path d="M15.172 19.437v3.297q0 1.047-.609 1.047-.359 0-.703-.344v-4.703q.344-.344.703-.344.609 0 .609 1.047zm5.281.016v.719h-1.406v-.719q0-1.062.703-1.062t.703 1.062zM5.359 16.047h1.672v-1.469H2.156v1.469h1.641v8.891H5.36v-8.891zm4.5 8.891h1.391v-7.719H9.859v5.906q-.469.656-.891.656-.281 0-.328-.328-.016-.047-.016-.547v-5.688H7.233v6.109q0 .766.125 1.141.187.578.906.578.75 0 1.594-.953v.844zm6.703-2.313v-3.078q0-1.141-.141-1.547-.266-.875-1.109-.875-.781 0-1.453.844v-3.391h-1.391v10.359h1.391v-.75q.703.859 1.453.859.844 0 1.109-.859.141-.422.141-1.563zm5.282-.156v-.203h-1.422q0 .797-.031.953-.109.562-.625.562-.719 0-.719-1.078v-1.359h2.797v-1.609q0-1.234-.422-1.813-.609-.797-1.656-.797-1.062 0-1.672.797-.438.578-.438 1.813v2.703q0 1.234.453 1.813.609.797 1.687.797 1.125 0 1.687-.828.281-.422.328-.844.031-.141.031-.906zm-9.5-14.266V4.922q0-1.078-.672-1.078T11 4.922v3.281q0 1.094.672 1.094t.672-1.094zm11.234 11.735q0 3.656-.406 5.469-.219.922-.906 1.547t-1.594.719q-2.875.328-8.672.328t-8.672-.328q-.906-.094-1.602-.719t-.898-1.547q-.406-1.75-.406-5.469 0-3.656.406-5.469.219-.922.906-1.547t1.609-.734q2.859-.313 8.656-.313t8.672.313q.906.109 1.602.734t.898 1.547q.406 1.75.406 5.469zM7.984 0h1.594L7.687 6.234v4.234H6.124V6.234q-.219-1.156-.953-3.313-.578-1.609-1.016-2.922h1.656L6.92 4.108zm5.782 5.203v2.734q0 1.266-.438 1.844-.578.797-1.656.797-1.047 0-1.641-.797-.438-.594-.438-1.844V5.203q0-1.25.438-1.828.594-.797 1.641-.797 1.078 0 1.656.797.438.578.438 1.828zM19 2.672v7.797h-1.422V9.61q-.828.969-1.609.969-.719 0-.922-.578-.125-.375-.125-1.172V2.673h1.422v5.734q0 .516.016.547.047.344.328.344.422 0 .891-.672V2.673h1.422z" fill="#fff"/></svg>